<svg width="112" height="112" viewBox="0 0 112 112" fill="none" xmlns="http://www.w3.org/2000/svg">
<rect width="112" height="112" rx="56" fill="#14051E"/>
<g clip-path="url(#clip0_7_2)">
<path d="M25.893 41.0868H35.4506V44.3585C34.347 49.6664 31.4375 53.0881 28.1592 53.0881C26.5109 53.0881 23.0356 53.5048 23.0356 56.6007C23.0356 59.7495 26.4124 60.1133 28.1592 60.1133C33.1872 60.1133 34.9089 66.8277 35.4431 68.9111L35.4506 68.9405V72.2122H25.893C21.0916 72.2122 12 68.6285 12 56.5031C12 44.5349 21.7813 41.0868 25.893 41.0868Z" fill="#3F59A8"/>
<path d="M45.1793 72.2977C48.3773 72.3749 51.0331 69.8763 51.1112 66.717C51.1894 63.5577 48.6602 60.934 45.4623 60.8568C42.2643 60.7796 39.6085 63.2782 39.5304 66.4375C39.4523 69.5968 41.9814 72.2205 45.1793 72.2977Z" fill="#3F59A8"/>
<path d="M60.9324 39.5806C64.1304 39.6578 66.7862 37.1593 66.8643 34C66.9425 30.8407 64.4134 28.217 61.2154 28.1398C58.0174 28.0626 55.3616 30.5611 55.2835 33.7204C55.2054 36.8797 57.7345 39.5034 60.9324 39.5806Z" fill="#3F59A8"/>
<path d="M45.1793 55.497C48.3773 55.5742 51.0331 53.0757 51.1112 49.9164C51.1894 46.7571 48.6602 44.1333 45.4623 44.0562C42.2643 43.979 39.6085 46.4775 39.5304 49.6368C39.4523 52.7961 41.9814 55.4198 45.1793 55.497Z" fill="#3F59A8"/>
<path d="M57.6904 54.2227C60.2637 56.1 63.8903 55.561 65.7906 53.0188C67.6909 50.4766 67.1453 46.8938 64.5719 45.0165C61.9986 43.1392 58.3721 43.6782 56.4718 46.2204C54.5715 48.7626 55.1171 52.3454 57.6904 54.2227Z" fill="#3F59A8"/>
<path d="M58.3189 71.0418C60.8923 72.9191 64.5188 72.3801 66.4191 69.8379C68.3194 67.2956 67.7738 63.7129 65.2005 61.8356C62.6272 59.9583 59.0006 60.4973 57.1003 63.0395C55.2 65.5817 55.7456 69.1644 58.3189 71.0418Z" fill="#3F59A8"/>
<path fill-rule="evenodd" clip-rule="evenodd" d="M57.5961 48.7412L63.6102 48.208L63.9021 54.1118C63.5792 54.301 63.6805 54.4082 63.4435 54.7254C62.4933 55.9966 62.4602 60.7657 63.7469 61.7044C63.9698 61.8671 64.5869 62.4063 64.8341 62.4976L65.3844 67.7346L59.3703 68.2678L59.1902 61.6996C59.5162 61.51 59.4508 61.6722 59.6896 61.3527C60.6398 60.0816 60.2467 55.5943 58.9601 54.6556C58.7439 54.1422 58.05 53.8918 57.8 53.8003L57.5961 48.7412Z" fill="#3F59A8"/>
<path d="M99 39.672H79.0401C74.0278 40.0964 72.357 44.4469 72.1481 46.5691V49.5755H91.8395C97.1383 49.2218 98.821 45.0069 99 42.7669V39.672Z" fill="#3F59A8"/>
<path d="M99 50.9904H79.0401C74.0278 51.4148 72.357 55.7653 72.1481 57.8875V60.8939H91.8395C97.1383 60.5402 98.821 56.3254 99 54.0852V50.9904Z" fill="#3F59A8"/>
<path d="M99 62.3087H79.0401C74.0278 62.7332 72.357 67.0836 72.1481 69.2058V72.2123H91.8395C97.1383 71.8586 98.821 67.6437 99 65.4036V62.3087Z" fill="#3F59A8"/>
</g>
<defs>
<clipPath id="clip0_7_2">
<rect width="87" height="55" fill="white" transform="translate(12 28)"/>
</clipPath>
</defs>
</svg>
